<svg width="280" height="34" viewBox="0 0 280 34" fill="none" xmlns="http://www.w3.org/2000/svg">
<path d="M10.0547 33.4492C7.84115 33.4492 6.07031 33.1042 4.74219 32.4141C3.42708 31.7109 2.46354 30.6042 1.85156 29.0938C1.2526 27.5833 0.953125 25.5716 0.953125 23.0586C0.953125 20.5716 1.25911 18.5794 1.87109 17.082C2.48307 15.5846 3.44661 14.4974 4.76172 13.8203C6.08984 13.1302 7.86068 12.7852 10.0742 12.7852C12.6523 12.7852 14.5664 13.319 15.8164 14.3867C17.0794 15.4414 17.7305 17.0755 17.7695 19.2891H14.7031C14.625 18.2995 14.4167 17.5117 14.0781 16.9258C13.7526 16.3398 13.2578 15.9102 12.5938 15.6367C11.9297 15.3633 11.0638 15.2266 9.99609 15.2266C8.44661 15.2266 7.24219 15.4674 6.38281 15.9492C5.53646 16.431 4.92448 17.2383 4.54688 18.3711C4.18229 19.4909 4 21.0664 4 23.0977C4 25.2982 4.16927 26.9583 4.50781 28.0781C4.84635 29.1979 5.44531 29.9857 6.30469 30.4414C7.16406 30.8841 8.42708 31.1055 10.0938 31.1055C11.1875 31.1055 12.0664 30.9688 12.7305 30.6953C13.3945 30.4089 13.8828 29.9661 14.1953 29.3672C14.5078 28.7552 14.6771 27.9479 14.7031 26.9453H17.7695C17.7565 28.5208 17.4896 29.7839 16.9688 30.7344C16.4479 31.6719 15.6276 32.362 14.5078 32.8047C13.388 33.2344 11.9036 33.4492 10.0547 33.4492ZM32.9523 33.4492C30.7518 33.4492 28.9875 33.1042 27.6594 32.4141C26.3443 31.724 25.3807 30.6302 24.7687 29.1328C24.1698 27.6224 23.8703 25.6172 23.8703 23.1172C23.8703 20.6172 24.1698 18.6185 24.7687 17.1211C25.3807 15.6237 26.3443 14.5299 27.6594 13.8398C28.9875 13.1497 30.7518 12.8047 32.9523 12.8047C35.1789 12.8047 36.9562 13.1497 38.2844 13.8398C39.6125 14.5169 40.5826 15.6042 41.1945 17.1016C41.8065 18.5859 42.1125 20.5716 42.1125 23.0586C42.1125 25.5716 41.8065 27.5833 41.1945 29.0938C40.5826 30.6042 39.6125 31.7109 38.2844 32.4141C36.9562 33.1042 35.1789 33.4492 32.9523 33.4492ZM33.0695 31.0078C34.619 31.0078 35.8169 30.7669 36.6633 30.2852C37.5227 29.8034 38.1346 29.0026 38.4992 27.8828C38.8638 26.763 39.0461 25.1875 39.0461 23.1562C39.0461 21.112 38.8573 19.5299 38.4797 18.4102C38.1021 17.2773 37.4771 16.4701 36.6047 15.9883C35.7453 15.4935 34.5279 15.2461 32.9523 15.2461C31.4029 15.2461 30.1984 15.4935 29.3391 15.9883C28.4797 16.4701 27.8612 17.2839 27.4836 18.4297C27.119 19.5625 26.9367 21.151 26.9367 23.1953C26.9367 25.2135 27.1255 26.7826 27.5031 27.9023C27.8807 29.0091 28.5057 29.8034 29.3781 30.2852C30.2505 30.7669 31.481 31.0078 33.0695 31.0078ZM50.3812 13.2539H52.8422L53.0766 16.0469C53.7276 14.849 54.587 14.0026 55.6547 13.5078C56.7224 13 58.1807 12.7461 60.0297 12.7461C61.7224 12.7461 63.0766 13.0195 64.0922 13.5664C65.1208 14.1133 65.8695 14.9857 66.3383 16.1836C66.807 17.3815 67.0414 18.9701 67.0414 20.9492V33H64.0336V20.9492C64.0336 19.569 63.8708 18.4688 63.5453 17.6484C63.2198 16.8151 62.699 16.2096 61.9828 15.832C61.2797 15.4544 60.3357 15.2656 59.1508 15.2656C57.7576 15.2656 56.6378 15.4609 55.7914 15.8516C54.9581 16.2422 54.3461 16.8607 53.9555 17.707C53.5779 18.5534 53.3891 19.6862 53.3891 21.1055V33H50.3812V13.2539ZM77.7906 15.6367H74.2359V13.2539H77.7906V10.832C77.7906 9.25651 77.9664 8.03255 78.318 7.16016C78.6826 6.28776 79.2815 5.66276 80.1148 5.28516C80.9482 4.90755 82.1135 4.71875 83.6109 4.71875C84.3271 4.71875 85.1148 4.79036 85.9742 4.93359V7.35547C85.0367 7.2513 84.275 7.19922 83.6891 7.19922C82.9469 7.19922 82.3674 7.27734 81.9508 7.43359C81.5341 7.57682 81.2346 7.82422 81.0523 8.17578C80.8831 8.52734 80.7984 9.01562 80.7984 9.64062V13.2539H85.6422V15.6367H80.7789V33H77.7906V15.6367ZM90.7594 4.85547H93.7477V33H90.7594V4.85547ZM110.415 33.4492C108.631 33.4492 107.244 33.2083 106.255 32.7266C105.265 32.2448 104.555 31.4505 104.126 30.3438C103.709 29.224 103.501 27.6615 103.501 25.6562V13.2539H106.509V25.1289C106.509 26.6523 106.652 27.8372 106.938 28.6836C107.238 29.5169 107.72 30.1159 108.384 30.4805C109.061 30.832 110.011 31.0078 111.235 31.0078C113.175 31.0078 114.608 30.5 115.532 29.4844C116.457 28.4557 116.919 26.8802 116.919 24.7578V13.2539H119.907V33H117.407L117.153 30.3633C116.502 31.3529 115.591 32.1146 114.419 32.6484C113.26 33.1823 111.925 33.4492 110.415 33.4492ZM136.945 33.4492C134.797 33.4492 133.078 33.1042 131.789 32.4141C130.5 31.724 129.556 30.6302 128.957 29.1328C128.371 27.6354 128.078 25.6367 128.078 23.1367C128.078 20.793 128.371 18.8659 128.957 17.3555C129.543 15.832 130.48 14.6927 131.77 13.9375C133.059 13.1823 134.758 12.8047 136.867 12.8047C138.885 12.8047 140.5 13.1042 141.711 13.7031C142.935 14.3021 143.827 15.2526 144.387 16.5547C144.947 17.8438 145.227 19.569 145.227 21.7305L145.207 23.625H131.125C131.125 25.4349 131.32 26.8867 131.711 27.9805C132.115 29.0612 132.74 29.8555 133.586 30.3633C134.445 30.8581 135.591 31.1055 137.023 31.1055C138.182 31.1055 139.113 30.9883 139.816 30.7539C140.533 30.5195 141.06 30.1484 141.398 29.6406C141.75 29.1198 141.945 28.4297 141.984 27.5703H145.051C145.051 29.5755 144.387 31.0599 143.059 32.0234C141.743 32.974 139.706 33.4492 136.945 33.4492ZM142.16 21.3984C142.199 19.901 142.043 18.7031 141.691 17.8047C141.34 16.9062 140.767 16.2487 139.973 15.832C139.178 15.4154 138.117 15.207 136.789 15.207C135.396 15.207 134.302 15.3958 133.508 15.7734C132.727 16.151 132.154 16.7826 131.789 17.668C131.424 18.5534 131.216 19.7969 131.164 21.3984H142.16ZM153.3 13.2539H155.761L155.995 16.0469C156.646 14.849 157.506 14.0026 158.573 13.5078C159.641 13 161.099 12.7461 162.948 12.7461C164.641 12.7461 165.995 13.0195 167.011 13.5664C168.04 14.1133 168.788 14.9857 169.257 16.1836C169.726 17.3815 169.96 18.9701 169.96 20.9492V33H166.952V20.9492C166.952 19.569 166.79 18.4688 166.464 17.6484C166.139 16.8151 165.618 16.2096 164.902 15.832C164.198 15.4544 163.254 15.2656 162.07 15.2656C160.676 15.2656 159.557 15.4609 158.71 15.8516C157.877 16.2422 157.265 16.8607 156.874 17.707C156.497 18.5534 156.308 19.6862 156.308 21.1055V33H153.3V13.2539ZM187.116 33.4492C184.902 33.4492 183.131 33.1042 181.803 32.4141C180.488 31.7109 179.524 30.6042 178.913 29.0938C178.314 27.5833 178.014 25.5716 178.014 23.0586C178.014 20.5716 178.32 18.5794 178.932 17.082C179.544 15.5846 180.508 14.4974 181.823 13.8203C183.151 13.1302 184.922 12.7852 187.135 12.7852C189.713 12.7852 191.627 13.319 192.877 14.3867C194.14 15.4414 194.791 17.0755 194.83 19.2891H191.764C191.686 18.2995 191.478 17.5117 191.139 16.9258C190.814 16.3398 190.319 15.9102 189.655 15.6367C188.991 15.3633 188.125 15.2266 187.057 15.2266C185.508 15.2266 184.303 15.4674 183.444 15.9492C182.597 16.431 181.985 17.2383 181.608 18.3711C181.243 19.4909 181.061 21.0664 181.061 23.0977C181.061 25.2982 181.23 26.9583 181.569 28.0781C181.907 29.1979 182.506 29.9857 183.366 30.4414C184.225 30.8841 185.488 31.1055 187.155 31.1055C188.248 31.1055 189.127 30.9688 189.791 30.6953C190.455 30.4089 190.944 29.9661 191.256 29.3672C191.569 28.7552 191.738 27.9479 191.764 26.9453H194.83C194.817 28.5208 194.551 29.7839 194.03 30.7344C193.509 31.6719 192.689 32.362 191.569 32.8047C190.449 33.2344 188.965 33.4492 187.116 33.4492ZM209.798 33.4492C207.65 33.4492 205.931 33.1042 204.642 32.4141C203.353 31.724 202.409 30.6302 201.81 29.1328C201.224 27.6354 200.931 25.6367 200.931 23.1367C200.931 20.793 201.224 18.8659 201.81 17.3555C202.396 15.832 203.334 14.6927 204.623 13.9375C205.912 13.1823 207.611 12.8047 209.72 12.8047C211.739 12.8047 213.353 13.1042 214.564 13.7031C215.788 14.3021 216.68 15.2526 217.24 16.5547C217.8 17.8438 218.08 19.569 218.08 21.7305L218.06 23.625H203.978C203.978 25.4349 204.173 26.8867 204.564 27.9805C204.968 29.0612 205.593 29.8555 206.439 30.3633C207.298 30.8581 208.444 31.1055 209.877 31.1055C211.035 31.1055 211.966 30.9883 212.67 30.7539C213.386 30.5195 213.913 30.1484 214.252 29.6406C214.603 29.1198 214.798 28.4297 214.837 27.5703H217.904C217.904 29.5755 217.24 31.0599 215.912 32.0234C214.597 32.974 212.559 33.4492 209.798 33.4492ZM215.013 21.3984C215.052 19.901 214.896 18.7031 214.545 17.8047C214.193 16.9062 213.62 16.2487 212.826 15.832C212.032 15.4154 210.97 15.207 209.642 15.207C208.249 15.207 207.155 15.3958 206.361 15.7734C205.58 16.151 205.007 16.7826 204.642 17.668C204.278 18.5534 204.069 19.7969 204.017 21.3984H215.013Z" fill="black"/>
<path d="M235.274 16.7305L234.571 18.2734L226.134 0.65625H227.54L235.274 16.7305ZM236.68 13.6445L235.958 15.1875L228.946 0.65625H230.352L236.68 13.6445ZM238.087 10.5781L237.384 12.1211L231.759 0.65625H233.165L238.087 10.5781ZM236.309 22.1016L246.485 0.65625H247.891L237.716 22.1016V33H236.309V22.1016ZM239.122 22.1016L249.298 0.65625H250.704L240.528 22.1016V33H239.122V22.1016ZM241.934 22.1016L252.11 0.65625H253.516L243.341 22.1016V33H241.934V22.1016ZM234.2 20.6172L243.673 0.65625H245.079L234.903 22.1016V33H233.497V22.1016L223.321 0.65625H224.727L234.2 20.6172ZM258.191 2.0625V0.65625H279.285V2.0625H258.191ZM258.191 4.875V3.46875H279.285V4.875H258.191ZM258.191 7.6875V6.28125H279.285V7.6875H273.66V33H272.254V7.6875H270.848V33H269.441V7.6875H268.035V33H266.629V7.6875H265.223V33H263.816V7.6875H258.191Z" fill="#FF0000"/>
</svg>
